{"title":"A Place to Call Home - S04E02 - Bad In A Good Way","uid":15854920,"size":1321580487,"categoryP":"video","categoryS":"tv_shows","magnet":"?xt=urn:btih:0faf3ccc51e6cbf2c8c057306d8c738cc789587e&amp;dn=A+Place+to+Call+Home+-+S04E02+-+Bad+In+A+Good+Way&amp;tr=udp%3A%2F%2Ftracker.leechers-paradise.org%3A6969&amp;tr=udp%3A%2F%2Fzer0day.ch%3A1337&amp;tr=udp%3A%2F%2Fopen.demonii.com%3A1337&amp;tr=udp%3A%2F%2Ftracker.coppersurfer.tk%3A6969&amp;tr=udp%3A%2F%2Fexodus.desync.com%3A6969","seeders":8,"leechers":3,"uploader":"Bullrout","files":1,"time":1474233773,"description":"A Place to Call Home - S04E02 - Bad In A Good Way\r\n\r\nRegina weaves another tendril around George. James is rattled by Olivia's confession. Jack proves to Carolyn that she's worthy of him.\r\n\r\nComplete name                            : A Place to Call Home - S04E02 - Bad In A Good Way.mkv\r\nFormat                                   : Matroska\r\nFormat version                           : Version 4 / Version 2\r\nFile size                                : 1.23 GiB\r\nDuration                                 : 52 min 52 s\r\nOverall bit rate mode                    : Variable\r\nOverall bit rate                         : 3 333 kb/s\r\nEncoded date                             : UTC 2016-09-18 18:22:01\r\nWriting application                      : mkvmerge v9.4.2 ('So High') 64bit\r\nWriting library                          : libebml v1.3.4 + libmatroska v1.4.5\r\n\r\nVideo\r\nID                                       : 2\r\nFormat                                   : AVC\r\nFormat/Info                              : Advanced Video Codec\r\nFormat profile                           :   \r\nFormat settings, CABAC                   : Yes\r\nFormat settings, ReFrames                : 3 frames\r\nCodec ID                                 : V_MPEG4/ISO/AVC\r\nDuration                                 : 52 min 52 s\r\nBit rate mode                            : Variable\r\nBit rate                                 : 2 947 kb/s\r\nMaximum bit rate                         : 3 000 kb/s\r\nWidth                                    : 1 280 pixels\r\nHeight                                   : 720 pixels\r\nDisplay aspect ratio                     : 16:9\r\nFrame rate mode                          : Constant\r\nFrame rate                               : 25.000 FPS\r\nStandard                                 : PAL\r\nColor space                              : YUV\r\nChroma subsampling                       : 4:2:0\r\nBit depth                                : 8 bits\r\nScan type                                : Progressive\r\nBits/(Pixel*Frame)                       : 0.128\r\nStream size                              : 1.09 GiB (88%)\r\nWriting library                          : x264 core 112\r\nDefault                                  : Yes\r\nForced                                   : No\r\nColor range                              : Limited\r\nColor primaries                          : BT.709\r\nTransfer characteristics                 : BT.709\r\nMatrix coefficients                      : BT.709\r\n\r\nAudio\r\nID                                       : 1\r\nFormat                                   : AC-3\r\nFormat/Info                              : Audio Coding 3\r\nMode extension                           : CM (complete main)\r\nFormat settings, Endianness              : Big\r\nCodec ID                                 : A_AC3\r\nDuration                                 : 52 min 52 s\r\nBit rate mode                            : Constant\r\nBit rate                                 : 384 kb/s\r\nChannel(s)                               : 6 channels\r\nChannel positions                        : Front: L C R, Side: L R, LFE\r\nSampling rate                            : 48.0 kHz\r\nFrame rate                               : 31.250 FPS (1536 spf)\r\nCompression mode                         : Lossy\r\nStream size                              : 145 MiB (12%)\r\nDefault                                  : Yes\r\nForced                                   : No","torrent":{"xt":"urn:btih:0faf3ccc51e6cbf2c8c057306d8c738cc789587e","amp;dn":"A+Place+to+Call+Home+-+S04E02+-+Bad+In+A+Good+Way","amp;tr":["udp%3A%2F%2Ftracker.leechers-paradise.org%3A6969","udp%3A%2F%2Fzer0day.ch%3A1337","udp%3A%2F%2Fopen.demonii.com%3A1337","udp%3A%2F%2Ftracker.coppersurfer.tk%3A6969","udp%3A%2F%2Fexodus.desync.com%3A6969"],"infoHash":"0faf3ccc51e6cbf2c8c057306d8c738cc789587e","infoHashBuffer":{"type":"Buffer","data":[15,175,60,204,81,230,203,242,200,192,87,48,109,140,115,140,199,137,88,126]},"announce":[],"urlList":[]}}